<svg width="1920" height="1024" viewBox="0 0 1920 1024" fill="none" xmlns="http://www.w3.org/2000/svg">
<g clip-path="url(#clip0_1_7)">
<rect width="1920" height="1024" fill="#282931"/>
<mask id="mask0_1_7" style="mask-type:luminance" maskUnits="userSpaceOnUse" x="0" y="0" width="1536" height="1024">
<path d="M1536 0H0V1024H1536V0Z" fill="white"/>
</mask>
<g mask="url(#mask0_1_7)">
<g opacity="0.9">
<path d="M-272.414 22.3116L-272.604 19.7594L64.5432 -5.19938L252.774 -286.765L253.396 -286.811L590.54 -311.767L778.777 -593.336L779.399 -593.382L1116.54 -618.339L1304.79 -899.913L1305.41 -899.959L1643.19 -924.97L1643.38 -922.417L1306.23 -897.453L1117.98 -615.878L1117.36 -615.831L780.212 -590.875L591.974 -309.306L591.352 -309.261L254.207 -284.303L65.9768 -2.73789L65.3548 -2.69313L-272.414 22.3116Z" fill="url(#paint0_linear_1_7)"/>
</g>
<g opacity="0.8">
<path d="M-272.414 75.8117L-272.604 73.2593L64.5432 48.3006L252.774 -233.265L253.396 -233.31L590.54 -258.267L778.777 -539.835L779.399 -539.881L1116.54 -564.84L1304.79 -846.414L1305.41 -846.459L1643.19 -871.469L1643.38 -868.917L1306.23 -843.953L1117.98 -562.378L1117.36 -562.332L780.21 -537.375L591.974 -255.806L591.352 -255.761L254.207 -230.803L65.9768 50.7608L65.3548 50.8068L-272.414 75.8117Z" fill="url(#paint1_linear_1_7)"/>
</g>
<g opacity="0.7">
<path d="M-272.414 129.312L-272.604 126.758L64.5432 101.799L252.774 -179.765L253.396 -179.81L590.54 -204.767L778.777 -486.336L779.399 -486.381L1116.54 -511.339L1304.79 -792.913L1305.41 -792.959L1643.19 -817.969L1643.38 -815.417L1306.23 -790.451L1117.98 -508.877L1117.36 -508.832L780.21 -483.875L591.974 -202.307L591.352 -202.26L254.207 -177.303L65.9768 104.261L65.3548 104.307L-272.414 129.312Z" fill="url(#paint2_linear_1_7)"/>
</g>
<g opacity="0.6">
<path d="M-272.414 182.812L-272.604 180.258L64.5432 155.301L252.774 -126.264L253.396 -126.309L590.54 -151.267L778.777 -432.836L779.399 -432.881L1116.54 -457.838L1304.79 -739.413L1305.41 -739.459L1643.19 -764.47L1643.38 -761.916L1306.23 -736.951L1117.98 -455.377L1117.36 -455.332L780.21 -430.374L591.974 -148.806L591.352 -148.759L254.207 -123.803L65.9768 157.763L65.3548 157.807L-272.414 182.812Z" fill="url(#paint3_linear_1_7)"/>
</g>
<g opacity="0.5">
<path d="M-272.414 236.312L-272.604 233.76L64.5432 208.801L252.774 -72.7641L253.396 -72.8102L590.54 -97.7664L778.777 -379.336L779.399 -379.38L1116.54 -404.338L1304.79 -685.914L1305.41 -685.958L1643.19 -710.97L1643.38 -708.416L1306.23 -683.452L1117.98 -401.878L1117.36 -401.832L780.21 -376.874L591.974 -95.3049L591.352 -95.2588L254.207 -70.3027L65.9768 211.262L65.3548 211.308L-272.414 236.312Z" fill="url(#paint4_linear_1_7)"/>
</g>
<g opacity="0.4">
<path d="M-272.414 289.812L-272.604 287.259L64.5432 262.301L252.774 -19.2641L253.396 -19.3102L590.54 -44.2664L778.777 -325.834L779.399 -325.882L1116.54 -350.838L1304.79 -632.412L1305.41 -632.458L1643.19 -657.47L1643.38 -654.916L1306.23 -629.951L1117.98 -348.378L1117.36 -348.332L780.212 -323.374L591.974 -41.8049L591.352 -41.7588L254.207 -16.8027L65.9768 264.762L65.3548 264.808L-272.414 289.812Z" fill="url(#paint5_linear_1_7)"/>
</g>
<g opacity="0.3">
<path d="M-272.414 343.312L-272.604 340.759L64.5432 315.801L252.774 34.2359L253.396 34.1898L590.54 9.23364L778.777 -272.336L779.399 -272.382L1116.54 -297.338L1304.79 -578.912L1305.41 -578.958L1643.19 -603.97L1643.38 -601.416L1306.23 -576.451L1117.98 -294.876L1117.36 -294.83L780.212 -269.874L591.974 11.6951L591.352 11.7399L254.207 36.6974L65.9768 318.263L65.3548 318.308L-272.414 343.312Z" fill="url(#paint6_linear_1_7)"/>
</g>
<g opacity="0.2">
<path d="M-272.414 396.812L-272.604 394.26L64.5432 369.301L252.774 87.7361L253.396 87.69L590.54 62.7338L778.777 -218.835L779.399 -218.882L1116.54 -243.838L1304.79 -525.412L1305.41 -525.458L1643.19 -550.469L1643.38 -547.916L1306.23 -522.951L1117.98 -241.378L1117.36 -241.33L780.212 -216.374L591.974 65.1952L591.352 65.24L254.207 90.1975L65.9768 371.763L65.3548 371.808L-272.414 396.812Z" fill="url(#paint7_linear_1_7)"/>
</g>
<g opacity="0.1">
<path d="M-272.414 450.313L-272.604 447.761L64.5432 422.802L252.774 141.237L253.396 141.192L590.54 116.234L778.777 -165.334L779.399 -165.38L1116.54 -190.339L1304.79 -471.912L1305.41 -471.958L1643.19 -496.968L1643.38 -494.415L1306.23 -469.451L1117.98 -187.877L1117.36 -187.83L780.21 -162.872L591.974 118.696L591.352 118.74L254.207 143.698L65.9768 425.263L65.3548 425.308L-272.414 450.313Z" fill="url(#paint8_linear_1_7)"/>
</g>
<g opacity="0.08">
<path d="M-272.414 503.813L-272.604 501.259L64.5432 476.302L252.774 194.737L253.396 194.692L590.54 169.734L778.777 -111.834L779.399 -111.88L1116.54 -136.837L1304.79 -418.412L1305.41 -418.458L1643.19 -443.468L1643.38 -440.915L1306.23 -415.95L1117.98 -134.376L1117.36 -134.331L780.21 -109.374L591.974 172.194L591.352 172.242L254.207 197.198L65.9768 478.762L65.3548 478.808L-272.414 503.813Z" fill="url(#paint9_linear_1_7)"/>
</g>
<g opacity="0.05">
<path d="M-272.414 557.313L-272.604 554.761L64.5432 529.802L252.774 248.237L253.396 248.191L590.54 223.235L778.777 -58.3346L779.399 -58.3807L1116.54 -83.3368L1304.79 -364.911L1305.41 -364.957L1643.19 -389.969L1643.38 -387.415L1306.23 -362.45L1117.98 -80.8754L1117.36 -80.8293L780.212 -55.8732L591.974 225.696L591.352 225.742L254.207 250.698L65.9768 532.264L65.3548 532.309L-272.414 557.313Z" fill="url(#paint10_linear_1_7)"/>
</g>
<g opacity="0.03">
<path d="M-272.414 610.813L-272.604 608.261L64.5432 583.302L252.774 301.738L253.396 301.691L590.54 276.735L778.777 -4.83461L779.399 -4.87941L1116.54 -29.8368L1304.79 -311.411L1305.41 -311.457L1643.19 -336.469L1643.38 -333.915L1306.23 -308.951L1117.98 -27.3767L1117.36 -27.3306L780.21 -2.37316L591.974 279.196L591.352 279.242L254.207 304.198L65.9768 585.764L65.3548 585.809L-272.414 610.813Z" fill="url(#paint11_linear_1_7)"/>
</g>
<g opacity="0.02">
<path d="M-272.414 664.314L-272.604 661.761L64.5432 636.803L252.774 355.238L253.396 355.191L590.54 330.235L778.777 48.6669L779.399 48.6208L1116.54 23.6634L1304.79 -257.911L1305.41 -257.957L1643.19 -282.968L1643.38 -280.415L1306.23 -255.45L1117.98 26.1235L1117.36 26.1696L780.212 51.1283L591.974 332.696L591.352 332.742L254.207 357.699L65.9768 639.263L65.3548 639.309L-272.414 664.314Z" fill="url(#paint12_linear_1_7)"/>
</g>
</g>
<mask id="mask1_1_7" style="mask-type:luminance" maskUnits="userSpaceOnUse" x="0" y="0" width="1536" height="1024">
<path d="M1536 1024H0V0H1536V1024Z" fill="white"/>
</mask>
<g mask="url(#mask1_1_7)">
<g opacity="0.9">
<path d="M-272.414 1001.69L-272.604 1004.24L64.5432 1029.2L252.774 1310.76L253.396 1310.81L590.54 1335.77L778.777 1617.34L779.399 1617.38L1116.54 1642.34L1304.79 1923.91L1305.41 1923.96L1643.19 1948.97L1643.38 1946.42L1306.23 1921.45L1117.98 1639.88L1117.36 1639.83L780.212 1614.87L591.974 1333.31L591.352 1333.26L254.207 1308.3L65.9768 1026.74L65.3548 1026.69L-272.414 1001.69Z" fill="url(#paint13_linear_1_7)"/>
</g>
<g opacity="0.8">
<path d="M-272.414 948.188L-272.604 950.741L64.5432 975.699L252.774 1257.26L253.396 1257.31L590.54 1282.27L778.777 1563.84L779.399 1563.88L1116.54 1588.84L1304.79 1870.41L1305.41 1870.46L1643.19 1895.47L1643.38 1892.92L1306.23 1867.95L1117.98 1586.38L1117.36 1586.33L780.21 1561.37L591.974 1279.81L591.352 1279.76L254.207 1254.8L65.9768 973.239L65.3548 973.193L-272.414 948.188Z" fill="url(#paint14_linear_1_7)"/>
</g>
<g opacity="0.7">
<path d="M-272.414 894.688L-272.604 897.242L64.5432 922.201L252.774 1203.76L253.396 1203.81L590.54 1228.77L778.777 1510.34L779.399 1510.38L1116.54 1535.34L1304.79 1816.91L1305.41 1816.96L1643.19 1841.97L1643.38 1839.42L1306.23 1814.45L1117.98 1532.88L1117.36 1532.83L780.21 1507.87L591.974 1226.31L591.352 1226.26L254.207 1201.3L65.9768 919.739L65.3548 919.693L-272.414 894.688Z" fill="url(#paint15_linear_1_7)"/>
</g>
<g opacity="0.6">
<path d="M-272.414 841.188L-272.604 843.742L64.5432 868.699L252.774 1150.26L253.396 1150.31L590.54 1175.27L778.777 1456.84L779.399 1456.88L1116.54 1481.84L1304.79 1763.41L1305.41 1763.46L1643.19 1788.47L1643.38 1785.92L1306.23 1760.95L1117.98 1479.38L1117.36 1479.33L780.21 1454.37L591.974 1172.81L591.352 1172.76L254.207 1147.8L65.9768 866.237L65.3548 866.193L-272.414 841.188Z" fill="url(#paint16_linear_1_7)"/>
</g>
<g opacity="0.5">
<path d="M-272.414 787.688L-272.604 790.24L64.5432 815.199L252.774 1096.76L253.396 1096.81L590.54 1121.77L778.777 1403.34L779.399 1403.38L1116.54 1428.34L1304.79 1709.91L1305.41 1709.96L1643.19 1734.97L1643.38 1732.42L1306.23 1707.45L1117.98 1425.88L1117.36 1425.83L780.21 1400.87L591.974 1119.3L591.352 1119.26L254.207 1094.3L65.9768 812.738L65.3548 812.692L-272.414 787.688Z" fill="url(#paint17_linear_1_7)"/>
</g>
<g opacity="0.4">
<path d="M-272.414 734.188L-272.604 736.741L64.5432 761.699L252.774 1043.26L253.396 1043.31L590.54 1068.27L778.777 1349.83L779.399 1349.88L1116.54 1374.84L1304.79 1656.41L1305.41 1656.46L1643.19 1681.47L1643.38 1678.92L1306.23 1653.95L1117.98 1372.38L1117.36 1372.33L780.212 1347.37L591.974 1065.8L591.352 1065.76L254.207 1040.8L65.9768 759.238L65.3548 759.192L-272.414 734.188Z" fill="url(#paint18_linear_1_7)"/>
</g>
<g opacity="0.3">
<path d="M-272.414 680.688L-272.604 683.241L64.5432 708.199L252.774 989.764L253.396 989.81L590.54 1014.77L778.777 1296.34L779.399 1296.38L1116.54 1321.34L1304.79 1602.91L1305.41 1602.96L1643.19 1627.97L1643.38 1625.42L1306.23 1600.45L1117.98 1318.88L1117.36 1318.83L780.212 1293.87L591.974 1012.3L591.352 1012.26L254.207 987.303L65.9768 705.737L65.3548 705.692L-272.414 680.688Z" fill="url(#paint19_linear_1_7)"/>
</g>
<g opacity="0.2">
<path d="M-272.414 627.188L-272.604 629.74L64.5432 654.699L252.774 936.264L253.396 936.31L590.54 961.266L778.777 1242.84L779.399 1242.88L1116.54 1267.84L1304.79 1549.41L1305.41 1549.46L1643.19 1574.47L1643.38 1571.92L1306.23 1546.95L1117.98 1265.38L1117.36 1265.33L780.212 1240.37L591.974 958.805L591.352 958.76L254.207 933.802L65.9768 652.237L65.3548 652.192L-272.414 627.188Z" fill="url(#paint20_linear_1_7)"/>
</g>
<g opacity="0.1">
<path d="M-272.414 573.687L-272.604 576.239L64.5432 601.198L252.774 882.763L253.396 882.808L590.54 907.766L778.777 1189.33L779.399 1189.38L1116.54 1214.34L1304.79 1495.91L1305.41 1495.96L1643.19 1520.97L1643.38 1518.42L1306.23 1493.45L1117.98 1211.88L1117.36 1211.83L780.21 1186.87L591.974 905.304L591.352 905.26L254.207 880.302L65.9768 598.737L65.3548 598.692L-272.414 573.687Z" fill="url(#paint21_linear_1_7)"/>
</g>
<g opacity="0.08">
<path d="M-272.414 520.187L-272.604 522.741L64.5432 547.698L252.774 829.263L253.396 829.308L590.54 854.266L778.777 1135.83L779.399 1135.88L1116.54 1160.84L1304.79 1442.41L1305.41 1442.46L1643.19 1467.47L1643.38 1464.92L1306.23 1439.95L1117.98 1158.38L1117.36 1158.33L780.21 1133.37L591.974 851.806L591.352 851.758L254.207 826.802L65.9768 545.238L65.3548 545.192L-272.414 520.187Z" fill="url(#paint22_linear_1_7)"/>
</g>
<g opacity="0.05">
<path d="M-272.414 466.687L-272.604 469.239L64.5432 494.198L252.774 775.763L253.396 775.809L590.54 800.765L778.777 1082.33L779.399 1082.38L1116.54 1107.34L1304.79 1388.91L1305.41 1388.96L1643.19 1413.97L1643.38 1411.41L1306.23 1386.45L1117.98 1104.88L1117.36 1104.83L780.212 1079.87L591.974 798.304L591.352 798.258L254.207 773.302L65.9768 491.736L65.3548 491.691L-272.414 466.687Z" fill="url(#paint23_linear_1_7)"/>
</g>
<g opacity="0.03">
<path d="M-272.414 413.187L-272.604 415.739L64.5432 440.698L252.774 722.262L253.396 722.309L590.54 747.265L778.777 1028.83L779.399 1028.88L1116.54 1053.84L1304.79 1335.41L1305.41 1335.46L1643.19 1360.47L1643.38 1357.91L1306.23 1332.95L1117.98 1051.38L1117.36 1051.33L780.21 1026.37L591.974 744.804L591.352 744.758L254.207 719.802L65.9768 438.236L65.3548 438.191L-272.414 413.187Z" fill="url(#paint24_linear_1_7)"/>
</g>
<g opacity="0.02">
<path d="M-272.414 359.686L-272.604 362.239L64.5432 387.197L252.774 668.762L253.396 668.809L590.54 693.765L778.777 975.333L779.399 975.379L1116.54 1000.34L1304.79 1281.91L1305.41 1281.96L1643.19 1306.97L1643.38 1304.41L1306.23 1279.45L1117.98 997.876L1117.36 997.83L780.212 972.872L591.974 691.304L591.352 691.258L254.207 666.301L65.9768 384.737L65.3548 384.691L-272.414 359.686Z" fill="url(#paint25_linear_1_7)"/>
</g>
</g>
<mask id="mask2_1_7" style="mask-type:luminance" maskUnits="userSpaceOnUse" x="384" y="0" width="1536" height="1024">
<path d="M1920 0H384V1024H1920V0Z" fill="white"/>
</mask>
<g mask="url(#mask2_1_7)">
<path d="M2372.68 800.463L2372.87 803.015L2035.72 827.973L1847.49 1109.54L1846.87 1109.58L1509.73 1134.54L1321.49 1416.11L1320.87 1416.16L983.723 1441.11L795.476 1722.69L794.854 1722.73L457.073 1747.74L456.885 1745.19L794.042 1720.23L982.288 1438.65L982.911 1438.61L1320.06 1413.65L1508.29 1132.08L1508.92 1132.03L1846.06 1107.08L2034.29 825.513L2034.91 825.466L2372.68 800.463Z" fill="url(#paint26_linear_1_7)"/>
<g opacity="0.9">
<path d="M2372.68 746.962L2372.87 749.515L2035.72 774.474L1847.49 1056.04L1846.87 1056.09L1509.73 1081.04L1321.49 1362.61L1320.87 1362.66L983.723 1387.61L795.476 1669.19L794.854 1669.23L457.073 1694.24L456.885 1691.69L794.042 1666.73L982.288 1385.15L982.911 1385.11L1320.06 1360.15L1508.29 1078.58L1508.92 1078.53L1846.06 1053.58L2034.29 772.013L2034.91 771.966L2372.68 746.962Z" fill="url(#paint27_linear_1_7)"/>
</g>
<g opacity="0.8">
<path d="M2372.68 693.462L2372.87 696.015L2035.72 720.974L1847.49 1002.54L1846.87 1002.58L1509.73 1027.54L1321.49 1309.11L1320.87 1309.16L983.723 1334.11L795.476 1615.69L794.854 1615.73L457.073 1640.74L456.885 1638.19L794.042 1613.23L982.288 1331.65L982.911 1331.61L1320.06 1306.65L1508.29 1025.08L1508.92 1025.03L1846.06 1000.08L2034.29 718.513L2034.91 718.466L2372.68 693.462Z" fill="url(#paint28_linear_1_7)"/>
</g>
<g opacity="0.7">
<path d="M2372.68 639.961L2372.87 642.515L2035.72 667.473L1847.49 949.037L1846.87 949.084L1509.73 974.04L1321.49 1255.61L1320.87 1255.66L983.722 1280.61L795.476 1562.19L794.854 1562.23L457.073 1587.24L456.885 1584.69L794.041 1559.73L982.288 1278.15L982.911 1278.11L1320.06 1253.15L1508.29 971.58L1508.92 971.532L1846.06 946.576L2034.29 665.012L2034.91 664.966L2372.68 639.961Z" fill="url(#paint29_linear_1_7)"/>
</g>
<g opacity="0.6">
<path d="M2372.68 586.461L2372.87 589.015L2035.72 613.973L1847.49 895.537L1846.87 895.584L1509.73 920.54L1321.49 1202.11L1320.87 1202.16L983.722 1227.11L795.476 1508.69L794.854 1508.73L457.073 1533.74L456.885 1531.19L794.041 1506.23L982.288 1224.65L982.911 1224.61L1320.06 1199.65L1508.29 918.08L1508.92 918.034L1846.06 893.076L2034.29 611.512L2034.91 611.466L2372.68 586.461Z" fill="url(#paint30_linear_1_7)"/>
</g>
<g opacity="0.5">
<path d="M2372.68 532.962L2372.87 535.515L2035.72 560.473L1847.49 842.037L1846.87 842.084L1509.73 867.041L1321.49 1148.61L1320.87 1148.66L983.723 1173.61L795.476 1455.19L794.854 1455.23L457.073 1480.24L456.885 1477.69L794.041 1452.73L982.288 1171.15L982.911 1171.11L1320.06 1146.15L1508.29 864.58L1508.92 864.533L1846.06 839.577L2034.29 558.012L2034.91 557.966L2372.68 532.962Z" fill="url(#paint31_linear_1_7)"/>
</g>
<g opacity="0.4">
<path d="M2372.68 479.462L2372.87 482.015L2035.72 506.973L1847.49 788.537L1846.87 788.584L1509.73 813.54L1321.49 1095.11L1320.87 1095.16L983.723 1120.11L795.476 1401.69L794.854 1401.73L457.073 1426.74L456.885 1424.19L794.042 1399.23L982.288 1117.65L982.911 1117.61L1320.06 1092.65L1508.29 811.078L1508.92 811.034L1846.06 786.076L2034.29 504.512L2034.91 504.466L2372.68 479.462Z" fill="url(#paint32_linear_1_7)"/>
</g>
<g opacity="0.3">
<path d="M2372.68 425.962L2372.87 428.515L2035.72 453.472L1847.49 735.037L1846.87 735.084L1509.73 760.04L1321.49 1041.61L1320.87 1041.66L983.723 1066.61L795.476 1348.19L794.854 1348.23L457.073 1373.24L456.885 1370.69L794.042 1345.73L982.288 1064.15L982.911 1064.1L1320.06 1039.15L1508.29 757.58L1508.92 757.534L1846.06 732.576L2034.29 451.012L2034.91 450.966L2372.68 425.962Z" fill="url(#paint33_linear_1_7)"/>
</g>
<g opacity="0.2">
<path d="M2372.68 372.46L2372.87 375.014L2035.72 399.973L1847.49 681.537L1846.87 681.583L1509.73 706.539L1321.49 988.108L1320.87 988.154L983.723 1013.11L795.476 1294.69L794.854 1294.73L457.073 1319.74L456.885 1317.19L794.042 1292.22L982.288 1010.65L982.911 1010.6L1320.06 985.647L1508.29 704.079L1508.92 704.033L1846.06 679.077L2034.29 397.511L2034.91 397.465L2372.68 372.46Z" fill="url(#paint34_linear_1_7)"/>
</g>
<g opacity="0.1">
<path d="M2372.68 318.96L2372.87 321.514L2035.72 346.473L1847.49 628.037L1846.87 628.083L1509.73 653.04L1321.49 934.609L1320.87 934.653L983.723 959.612L795.476 1241.19L794.854 1241.23L457.073 1266.24L456.885 1263.69L794.042 1238.73L982.288 957.151L982.911 957.104L1320.06 932.147L1508.29 650.579L1508.92 650.533L1846.06 625.575L2034.29 344.011L2034.91 343.965L2372.68 318.96Z" fill="url(#paint35_linear_1_7)"/>
</g>
<g opacity="0.08">
<path d="M2372.68 265.46L2372.87 268.014L2035.72 292.973L1847.49 574.537L1846.87 574.583L1509.73 599.539L1321.49 881.109L1320.87 881.153L983.722 906.111L795.476 1187.69L794.854 1187.73L457.073 1212.74L456.885 1210.19L794.041 1185.22L982.288 903.651L982.911 903.604L1320.06 878.647L1508.29 597.079L1508.92 597.032L1846.06 572.075L2034.29 290.511L2034.91 290.465L2372.68 265.46Z" fill="url(#paint36_linear_1_7)"/>
</g>
<g opacity="0.05">
<path d="M2372.68 211.96L2372.87 214.513L2035.72 239.471L1847.49 521.036L1846.87 521.082L1509.73 546.039L1321.49 827.608L1320.87 827.654L983.723 852.611L795.476 1134.19L794.854 1134.23L457.073 1159.24L456.885 1156.69L794.042 1131.72L982.288 850.15L982.911 850.104L1320.06 825.146L1508.29 543.578L1508.92 543.532L1846.06 518.575L2034.29 237.011L2034.91 236.965L2372.68 211.96Z" fill="url(#paint37_linear_1_7)"/>
</g>
<g opacity="0.03">
<path d="M2372.68 158.461L2372.87 161.013L2035.72 185.972L1847.49 467.536L1846.87 467.582L1509.73 492.54L1321.49 774.108L1320.87 774.154L983.723 799.11L795.476 1080.69L794.854 1080.73L457.073 1105.74L456.885 1103.19L794.041 1078.22L982.288 796.65L982.911 796.604L1320.06 771.646L1508.29 490.078L1508.92 490.031L1846.06 465.075L2034.29 183.511L2034.91 183.465L2372.68 158.461Z" fill="url(#paint38_linear_1_7)"/>
</g>
<g opacity="0.02">
<path d="M2372.68 104.961L2372.87 107.514L2035.72 132.472L1847.49 414.036L1846.87 414.083L1509.73 439.039L1321.49 720.608L1320.87 720.654L983.723 745.61L795.476 1027.18L794.854 1027.23L457.073 1052.24L456.885 1049.69L794.042 1024.72L982.288 743.15L982.911 743.104L1320.06 718.147L1508.29 436.577L1508.92 436.532L1846.06 411.575L2034.29 130.011L2034.91 129.965L2372.68 104.961Z" fill="url(#paint39_linear_1_7)"/>
</g>
</g>
<mask id="mask3_1_7" style="mask-type:luminance" maskUnits="userSpaceOnUse" x="384" y="0" width="1536" height="1024">
<path d="M1920 1024H384V0H1920V1024Z" fill="white"/>
</mask>
<g mask="url(#mask3_1_7)">
<path d="M2372.68 223.537L2372.87 220.985L2035.72 196.027L1847.49 -85.5382L1846.87 -85.5842L1509.73 -110.54L1321.49 -392.11L1320.87 -392.156L983.723 -417.113L795.476 -698.688L794.854 -698.732L457.073 -723.744L456.885 -721.191L794.042 -696.226L982.288 -414.652L982.911 -414.606L1320.06 -389.648L1508.29 -108.08L1508.92 -108.034L1846.06 -83.0767L2034.29 198.487L2034.91 198.534L2372.68 223.537Z" fill="url(#paint40_linear_1_7)"/>
<g opacity="0.9">
<path d="M2372.68 277.038L2372.87 274.485L2035.72 249.526L1847.49 -32.0381L1846.87 -32.0855L1509.73 -57.0417L1321.49 -338.61L1320.87 -338.656L983.723 -363.613L795.476 -645.188L794.854 -645.234L457.073 -670.245L456.885 -667.691L794.042 -642.726L982.288 -361.152L982.911 -361.106L1320.06 -336.148L1508.29 -54.5802L1508.92 -54.5341L1846.06 -29.5779L2034.29 251.987L2034.91 252.034L2372.68 277.038Z" fill="url(#paint41_linear_1_7)"/>
</g>
<g opacity="0.8">
<path d="M2372.68 330.538L2372.87 327.985L2035.72 303.026L1847.49 21.4619L1846.87 21.4158L1509.73 -3.54169L1321.49 -285.11L1320.87 -285.156L983.723 -310.113L795.476 -591.688L794.854 -591.734L457.073 -616.744L456.885 -614.191L794.042 -589.226L982.288 -307.652L982.911 -307.606L1320.06 -282.648L1508.29 -1.08021L1508.92 -1.03412L1846.06 23.9233L2034.29 305.487L2034.91 305.534L2372.68 330.538Z" fill="url(#paint42_linear_1_7)"/>
</g>
<g opacity="0.7">
<path d="M2372.68 384.039L2372.87 381.485L2035.72 356.527L1847.49 74.9625L1846.87 74.9164L1509.73 49.9602L1321.49 -231.609L1320.87 -231.655L983.722 -256.613L795.476 -538.186L794.854 -538.232L457.073 -563.243L456.885 -560.691L794.041 -535.726L982.288 -254.151L982.911 -254.105L1320.06 -229.148L1508.29 52.4204L1508.92 52.4677L1846.06 77.4239L2034.29 358.988L2034.91 359.034L2372.68 384.039Z" fill="url(#paint43_linear_1_7)"/>
</g>
<g opacity="0.6">
<path d="M2372.68 437.539L2372.87 434.985L2035.72 410.027L1847.49 128.463L1846.87 128.416L1509.73 103.46L1321.49 -178.109L1320.87 -178.155L983.722 -203.113L795.476 -484.686L794.854 -484.732L457.073 -509.743L456.885 -507.191L794.041 -482.226L982.288 -200.651L982.911 -200.605L1320.06 -175.648L1508.29 105.92L1508.92 105.966L1846.06 130.924L2034.29 412.488L2034.91 412.534L2372.68 437.539Z" fill="url(#paint44_linear_1_7)"/>
</g>
<g opacity="0.5">
<path d="M2372.68 491.038L2372.87 488.485L2035.72 463.527L1847.49 181.963L1846.87 181.916L1509.73 156.959L1321.49 -124.609L1320.87 -124.655L983.723 -149.611L795.476 -431.187L794.854 -431.233L457.073 -456.243L456.885 -453.689L794.041 -428.727L982.288 -147.151L982.911 -147.105L1320.06 -122.148L1508.29 159.42L1508.92 159.467L1846.06 184.423L2034.29 465.988L2034.91 466.034L2372.68 491.038Z" fill="url(#paint45_linear_1_7)"/>
</g>
<g opacity="0.4">
<path d="M2372.68 544.538L2372.87 541.985L2035.72 517.027L1847.49 235.463L1846.87 235.416L1509.73 210.46L1321.49 -71.1091L1320.87 -71.1551L983.723 -96.1126L795.476 -377.687L794.854 -377.732L457.073 -402.743L456.885 -400.191L794.042 -375.226L982.288 -93.6511L982.911 -93.6063L1320.06 -68.6476L1508.29 212.922L1508.92 212.966L1846.06 237.924L2034.29 519.488L2034.91 519.534L2372.68 544.538Z" fill="url(#paint46_linear_1_7)"/>
</g>
<g opacity="0.3">
<path d="M2372.68 598.038L2372.87 595.485L2035.72 570.528L1847.49 288.963L1846.87 288.916L1509.73 263.96L1321.49 -17.6091L1320.87 -17.6551L983.723 -42.6126L795.476 -324.187L794.854 -324.232L457.073 -349.243L456.885 -346.691L794.042 -321.726L982.288 -40.1511L982.911 -40.105L1320.06 -15.1476L1508.29 266.42L1508.92 266.466L1846.06 291.424L2034.29 572.988L2034.91 573.034L2372.68 598.038Z" fill="url(#paint47_linear_1_7)"/>
</g>
<g opacity="0.2">
<path d="M2372.68 651.54L2372.87 648.986L2035.72 624.027L1847.49 342.463L1846.87 342.417L1509.73 317.461L1321.49 35.8915L1320.87 35.8455L983.723 10.888L795.476 -270.686L794.854 -270.731L457.073 -295.742L456.885 -293.19L794.042 -268.225L982.288 13.3495L982.911 13.3956L1320.06 38.353L1508.29 319.921L1508.92 319.967L1846.06 344.923L2034.29 626.489L2034.91 626.535L2372.68 651.54Z" fill="url(#paint48_linear_1_7)"/>
</g>
<g opacity="0.1">
<path d="M2372.68 705.04L2372.87 702.486L2035.72 677.527L1847.49 395.963L1846.87 395.917L1509.73 370.96L1321.49 89.3915L1320.87 89.3467L983.723 64.3879L795.476 -217.186L794.854 -217.233L457.073 -242.242L456.885 -239.69L794.042 -214.725L982.288 66.8494L982.911 66.8955L1320.06 91.8529L1508.29 373.421L1508.92 373.467L1846.06 398.425L2034.29 679.989L2034.91 680.035L2372.68 705.04Z" fill="url(#paint49_linear_1_7)"/>
</g>
<g opacity="0.08">
<path d="M2372.68 758.54L2372.87 755.986L2035.72 731.027L1847.49 449.463L1846.87 449.417L1509.73 424.461L1321.49 142.891L1320.87 142.847L983.722 117.889L795.476 -163.685L794.854 -163.731L457.073 -188.742L456.885 -186.19L794.041 -161.225L982.288 120.349L982.911 120.396L1320.06 145.353L1508.29 426.921L1508.92 426.968L1846.06 451.925L2034.29 733.489L2034.91 733.535L2372.68 758.54Z" fill="url(#paint50_linear_1_7)"/>
</g>
<g opacity="0.05">
<path d="M2372.68 812.04L2372.87 809.487L2035.72 784.529L1847.49 502.964L1846.87 502.918L1509.73 477.961L1321.49 196.392L1320.87 196.346L983.723 171.389L795.476 -110.186L794.854 -110.231L457.073 -135.242L456.885 -132.689L794.042 -107.724L982.288 173.85L982.911 173.896L1320.06 198.854L1508.29 480.422L1508.92 480.468L1846.06 505.425L2034.29 786.989L2034.91 787.035L2372.68 812.04Z" fill="url(#paint51_linear_1_7)"/>
</g>
<g opacity="0.03">
<path d="M2372.68 865.539L2372.87 862.987L2035.72 838.028L1847.49 556.464L1846.87 556.418L1509.73 531.46L1321.49 249.892L1320.87 249.846L983.723 224.89L795.476 -56.6857L794.854 -56.7305L457.073 -81.7417L456.885 -79.1881L794.041 -54.2242L982.288 227.35L982.911 227.396L1320.06 252.354L1508.29 533.922L1508.92 533.969L1846.06 558.925L2034.29 840.489L2034.91 840.535L2372.68 865.539Z" fill="url(#paint52_linear_1_7)"/>
</g>
<g opacity="0.02">
<path d="M2372.68 919.039L2372.87 916.486L2035.72 891.528L1847.49 609.964L1846.87 609.917L1509.73 584.961L1321.49 303.392L1320.87 303.346L983.723 278.39L795.476 -3.18458L794.854 -3.23068L457.073 -28.2419L456.885 -25.6896L794.042 -0.724425L982.288 280.85L982.911 280.896L1320.06 305.853L1508.29 587.423L1508.92 587.468L1846.06 612.425L2034.29 893.989L2034.91 894.035L2372.68 919.039Z" fill="url(#paint53_linear_1_7)"/>
</g>
</g>
</g>
<defs>
<linearGradient id="paint0_linear_1_7" x1="-235.645" y1="85.4081" x2="1606.42" y2="-988.067" gradientUnits="userSpaceOnUse">
<stop stop-color="white"/>
<stop offset="1"/>
</linearGradient>
<linearGradient id="paint1_linear_1_7" x1="-235.645" y1="138.908" x2="1606.42" y2="-934.566" gradientUnits="userSpaceOnUse">
<stop stop-color="white"/>
<stop offset="1"/>
</linearGradient>
<linearGradient id="paint2_linear_1_7" x1="-235.645" y1="192.408" x2="1606.42" y2="-881.066" gradientUnits="userSpaceOnUse">
<stop stop-color="white"/>
<stop offset="1"/>
</linearGradient>
<linearGradient id="paint3_linear_1_7" x1="-235.645" y1="245.909" x2="1606.42" y2="-827.565" gradientUnits="userSpaceOnUse">
<stop stop-color="white"/>
<stop offset="1"/>
</linearGradient>
<linearGradient id="paint4_linear_1_7" x1="-235.645" y1="299.409" x2="1606.42" y2="-774.066" gradientUnits="userSpaceOnUse">
<stop stop-color="white"/>
<stop offset="1"/>
</linearGradient>
<linearGradient id="paint5_linear_1_7" x1="-235.645" y1="352.909" x2="1606.42" y2="-720.566" gradientUnits="userSpaceOnUse">
<stop stop-color="white"/>
<stop offset="1"/>
</linearGradient>
<linearGradient id="paint6_linear_1_7" x1="-235.645" y1="406.409" x2="1606.42" y2="-667.065" gradientUnits="userSpaceOnUse">
<stop stop-color="white"/>
<stop offset="1"/>
</linearGradient>
<linearGradient id="paint7_linear_1_7" x1="-235.645" y1="459.909" x2="1606.42" y2="-613.566" gradientUnits="userSpaceOnUse">
<stop stop-color="white"/>
<stop offset="1"/>
</linearGradient>
<linearGradient id="paint8_linear_1_7" x1="-235.645" y1="513.409" x2="1606.42" y2="-560.065" gradientUnits="userSpaceOnUse">
<stop stop-color="white"/>
<stop offset="1"/>
</linearGradient>
<linearGradient id="paint9_linear_1_7" x1="-235.645" y1="566.91" x2="1606.42" y2="-506.565" gradientUnits="userSpaceOnUse">
<stop stop-color="white"/>
<stop offset="1"/>
</linearGradient>
<linearGradient id="paint10_linear_1_7" x1="-235.645" y1="620.41" x2="1606.42" y2="-453.065" gradientUnits="userSpaceOnUse">
<stop stop-color="white"/>
<stop offset="1"/>
</linearGradient>
<linearGradient id="paint11_linear_1_7" x1="-235.645" y1="673.91" x2="1606.42" y2="-399.565" gradientUnits="userSpaceOnUse">
<stop stop-color="white"/>
<stop offset="1"/>
</linearGradient>
<linearGradient id="paint12_linear_1_7" x1="-235.645" y1="727.41" x2="1606.42" y2="-346.064" gradientUnits="userSpaceOnUse">
<stop stop-color="white"/>
<stop offset="1"/>
</linearGradient>
<linearGradient id="paint13_linear_1_7" x1="-235.645" y1="938.592" x2="1606.42" y2="2012.07" gradientUnits="userSpaceOnUse">
<stop stop-color="white"/>
<stop offset="1"/>
</linearGradient>
<linearGradient id="paint14_linear_1_7" x1="-235.645" y1="885.092" x2="1606.42" y2="1958.57" gradientUnits="userSpaceOnUse">
<stop stop-color="white"/>
<stop offset="1"/>
</linearGradient>
<linearGradient id="paint15_linear_1_7" x1="-235.645" y1="831.592" x2="1606.42" y2="1905.07" gradientUnits="userSpaceOnUse">
<stop stop-color="white"/>
<stop offset="1"/>
</linearGradient>
<linearGradient id="paint16_linear_1_7" x1="-235.645" y1="778.091" x2="1606.42" y2="1851.57" gradientUnits="userSpaceOnUse">
<stop stop-color="white"/>
<stop offset="1"/>
</linearGradient>
<linearGradient id="paint17_linear_1_7" x1="-235.645" y1="724.591" x2="1606.42" y2="1798.07" gradientUnits="userSpaceOnUse">
<stop stop-color="white"/>
<stop offset="1"/>
</linearGradient>
<linearGradient id="paint18_linear_1_7" x1="-235.645" y1="671.091" x2="1606.42" y2="1744.57" gradientUnits="userSpaceOnUse">
<stop stop-color="white"/>
<stop offset="1"/>
</linearGradient>
<linearGradient id="paint19_linear_1_7" x1="-235.645" y1="617.591" x2="1606.42" y2="1691.07" gradientUnits="userSpaceOnUse">
<stop stop-color="white"/>
<stop offset="1"/>
</linearGradient>
<linearGradient id="paint20_linear_1_7" x1="-235.645" y1="564.091" x2="1606.42" y2="1637.57" gradientUnits="userSpaceOnUse">
<stop stop-color="white"/>
<stop offset="1"/>
</linearGradient>
<linearGradient id="paint21_linear_1_7" x1="-235.645" y1="510.591" x2="1606.42" y2="1584.06" gradientUnits="userSpaceOnUse">
<stop stop-color="white"/>
<stop offset="1"/>
</linearGradient>
<linearGradient id="paint22_linear_1_7" x1="-235.645" y1="457.09" x2="1606.42" y2="1530.56" gradientUnits="userSpaceOnUse">
<stop stop-color="white"/>
<stop offset="1"/>
</linearGradient>
<linearGradient id="paint23_linear_1_7" x1="-235.645" y1="403.59" x2="1606.42" y2="1477.06" gradientUnits="userSpaceOnUse">
<stop stop-color="white"/>
<stop offset="1"/>
</linearGradient>
<linearGradient id="paint24_linear_1_7" x1="-235.645" y1="350.09" x2="1606.42" y2="1423.56" gradientUnits="userSpaceOnUse">
<stop stop-color="white"/>
<stop offset="1"/>
</linearGradient>
<linearGradient id="paint25_linear_1_7" x1="-235.645" y1="296.59" x2="1606.42" y2="1370.06" gradientUnits="userSpaceOnUse">
<stop stop-color="white"/>
<stop offset="1"/>
</linearGradient>
<linearGradient id="paint26_linear_1_7" x1="2335.91" y1="737.366" x2="493.843" y2="1810.84" gradientUnits="userSpaceOnUse">
<stop stop-color="white"/>
<stop offset="1"/>
</linearGradient>
<linearGradient id="paint27_linear_1_7" x1="2335.91" y1="683.866" x2="493.843" y2="1757.34" gradientUnits="userSpaceOnUse">
<stop stop-color="white"/>
<stop offset="1"/>
</linearGradient>
<linearGradient id="paint28_linear_1_7" x1="2335.91" y1="630.366" x2="493.844" y2="1703.84" gradientUnits="userSpaceOnUse">
<stop stop-color="white"/>
<stop offset="1"/>
</linearGradient>
<linearGradient id="paint29_linear_1_7" x1="2335.91" y1="576.865" x2="493.843" y2="1650.34" gradientUnits="userSpaceOnUse">
<stop stop-color="white"/>
<stop offset="1"/>
</linearGradient>
<linearGradient id="paint30_linear_1_7" x1="2335.91" y1="523.365" x2="493.843" y2="1596.84" gradientUnits="userSpaceOnUse">
<stop stop-color="white"/>
<stop offset="1"/>
</linearGradient>
<linearGradient id="paint31_linear_1_7" x1="2335.91" y1="469.865" x2="493.843" y2="1543.34" gradientUnits="userSpaceOnUse">
<stop stop-color="white"/>
<stop offset="1"/>
</linearGradient>
<linearGradient id="paint32_linear_1_7" x1="2335.91" y1="416.365" x2="493.843" y2="1489.84" gradientUnits="userSpaceOnUse">
<stop stop-color="white"/>
<stop offset="1"/>
</linearGradient>
<linearGradient id="paint33_linear_1_7" x1="2335.91" y1="362.865" x2="493.843" y2="1436.34" gradientUnits="userSpaceOnUse">
<stop stop-color="white"/>
<stop offset="1"/>
</linearGradient>
<linearGradient id="paint34_linear_1_7" x1="2335.91" y1="309.364" x2="493.843" y2="1382.84" gradientUnits="userSpaceOnUse">
<stop stop-color="white"/>
<stop offset="1"/>
</linearGradient>
<linearGradient id="paint35_linear_1_7" x1="2335.91" y1="255.864" x2="493.843" y2="1329.34" gradientUnits="userSpaceOnUse">
<stop stop-color="white"/>
<stop offset="1"/>
</linearGradient>
<linearGradient id="paint36_linear_1_7" x1="2335.91" y1="202.364" x2="493.843" y2="1275.84" gradientUnits="userSpaceOnUse">
<stop stop-color="white"/>
<stop offset="1"/>
</linearGradient>
<linearGradient id="paint37_linear_1_7" x1="2335.91" y1="148.864" x2="493.843" y2="1222.34" gradientUnits="userSpaceOnUse">
<stop stop-color="white"/>
<stop offset="1"/>
</linearGradient>
<linearGradient id="paint38_linear_1_7" x1="2335.91" y1="95.3639" x2="493.843" y2="1168.84" gradientUnits="userSpaceOnUse">
<stop stop-color="white"/>
<stop offset="1"/>
</linearGradient>
<linearGradient id="paint39_linear_1_7" x1="2335.91" y1="41.864" x2="493.843" y2="1115.34" gradientUnits="userSpaceOnUse">
<stop stop-color="white"/>
<stop offset="1"/>
</linearGradient>
<linearGradient id="paint40_linear_1_7" x1="2335.91" y1="286.634" x2="493.843" y2="-786.84" gradientUnits="userSpaceOnUse">
<stop stop-color="white"/>
<stop offset="1"/>
</linearGradient>
<linearGradient id="paint41_linear_1_7" x1="2335.91" y1="340.134" x2="493.843" y2="-733.34" gradientUnits="userSpaceOnUse">
<stop stop-color="white"/>
<stop offset="1"/>
</linearGradient>
<linearGradient id="paint42_linear_1_7" x1="2335.91" y1="393.634" x2="493.844" y2="-679.84" gradientUnits="userSpaceOnUse">
<stop stop-color="white"/>
<stop offset="1"/>
</linearGradient>
<linearGradient id="paint43_linear_1_7" x1="2335.91" y1="447.135" x2="493.843" y2="-626.339" gradientUnits="userSpaceOnUse">
<stop stop-color="white"/>
<stop offset="1"/>
</linearGradient>
<linearGradient id="paint44_linear_1_7" x1="2335.91" y1="500.635" x2="493.843" y2="-572.839" gradientUnits="userSpaceOnUse">
<stop stop-color="white"/>
<stop offset="1"/>
</linearGradient>
<linearGradient id="paint45_linear_1_7" x1="2335.91" y1="554.135" x2="493.843" y2="-519.339" gradientUnits="userSpaceOnUse">
<stop stop-color="white"/>
<stop offset="1"/>
</linearGradient>
<linearGradient id="paint46_linear_1_7" x1="2335.91" y1="607.635" x2="493.843" y2="-465.839" gradientUnits="userSpaceOnUse">
<stop stop-color="white"/>
<stop offset="1"/>
</linearGradient>
<linearGradient id="paint47_linear_1_7" x1="2335.91" y1="661.135" x2="493.843" y2="-412.339" gradientUnits="userSpaceOnUse">
<stop stop-color="white"/>
<stop offset="1"/>
</linearGradient>
<linearGradient id="paint48_linear_1_7" x1="2335.91" y1="714.636" x2="493.843" y2="-358.839" gradientUnits="userSpaceOnUse">
<stop stop-color="white"/>
<stop offset="1"/>
</linearGradient>
<linearGradient id="paint49_linear_1_7" x1="2335.91" y1="768.136" x2="493.843" y2="-305.339" gradientUnits="userSpaceOnUse">
<stop stop-color="white"/>
<stop offset="1"/>
</linearGradient>
<linearGradient id="paint50_linear_1_7" x1="2335.91" y1="821.636" x2="493.843" y2="-251.839" gradientUnits="userSpaceOnUse">
<stop stop-color="white"/>
<stop offset="1"/>
</linearGradient>
<linearGradient id="paint51_linear_1_7" x1="2335.91" y1="875.136" x2="493.843" y2="-198.338" gradientUnits="userSpaceOnUse">
<stop stop-color="white"/>
<stop offset="1"/>
</linearGradient>
<linearGradient id="paint52_linear_1_7" x1="2335.91" y1="928.636" x2="493.843" y2="-144.838" gradientUnits="userSpaceOnUse">
<stop stop-color="white"/>
<stop offset="1"/>
</linearGradient>
<linearGradient id="paint53_linear_1_7" x1="2335.91" y1="982.136" x2="493.843" y2="-91.3383" gradientUnits="userSpaceOnUse">
<stop stop-color="white"/>
<stop offset="1"/>
</linearGradient>
<clipPath id="clip0_1_7">
<rect width="1920" height="1024" fill="white"/>
</clipPath>
</defs>
</svg>
